<svg width="424" height="106" viewBox="0 0 424 106" fill="none" xmlns="http://www.w3.org/2000/svg">
<path fill-rule="evenodd" clip-rule="evenodd" d="M96.2231 0C101.273 0.156588 105.325 4.24744 105.325 9.31697V96.0274C105.325 101.156 101.156 105.305 96.0078 105.305H9.31697C4.16915 105.305 0 101.156 0 96.0274V9.31697C0 4.24744 4.05171 0.156588 8.98422 0H96.2231Z" fill="#B62427"/>
<path d="M40.0669 60.6181C37.8551 62.869 35.3692 62.2231 34.5276 59.1697L26.7373 30.8469C25.8957 27.7934 27.6964 25.9535 30.7499 26.756L59.0923 34.1352C62.1457 34.9377 62.8308 37.4235 60.619 39.6745L40.0669 60.6181Z" fill="white"/>
<path d="M65.2579 44.6857C67.4697 42.4348 69.9556 43.0807 70.7972 46.1342L78.5875 74.457C79.4291 77.5104 77.6284 79.3503 74.5749 78.5478L46.2325 71.1686C43.1791 70.3661 42.494 67.8803 44.7058 65.6293L65.2579 44.6857Z" fill="white"/>
<path fill-rule="evenodd" clip-rule="evenodd" d="M169.349 87.299H127.541V74.1652L149.424 28.5199H129.106V13.8202H168.449V27.5216L146.82 72.5993H169.349V87.299ZM424 87.299V13.8202H407.598L409.301 54.8853H409.046L395.482 13.8202H377.631V87.2794H394.17L392.604 46.3317L392.741 46.136L406.286 87.2794H424V87.299ZM177.414 87.299V13.8202H194.873V87.2794H177.414V87.299ZM228.089 60.6595V47.4278H251.793V87.4164H239.931L239.011 80.8397H238.874C235.351 87.1228 231.319 89.0606 223.901 89.0606C209.181 89.0606 204.366 78.9607 204.366 65.6507V35.5076C204.386 19.4965 211.804 12.0586 227.698 12.0586C242.554 12.0586 251.401 18.3025 251.401 33.2958V38.8155H233.942V34.803C233.942 28.5199 233.159 25.3881 228.461 25.2707C223.118 25.1924 221.826 28.148 221.826 32.9239V69.2718C221.826 73.4018 223.646 75.8485 228.207 75.8485C234.196 75.8485 234.333 71.1509 234.333 66.4337V60.6595H228.089ZM293.093 87.299C292.701 85.9288 292.31 84.5391 292.173 83.0907C291.918 76.6314 292.31 70.5441 291.781 66.0226C291.253 61.5403 289.824 58.6043 285.792 58.2911H280.057V87.299H262.734V13.8202H288.141C302.332 13.8202 309.495 19.4769 309.495 34.0983C309.495 41.9473 307.538 47.5257 300.257 50.8532V51.0489C305.072 52.1255 308.595 55.453 308.85 60.5421C309.378 66.4337 309.495 79.0586 310.415 83.7758C310.807 84.774 311.335 85.6548 312.118 86.3399V87.299H293.093ZM280.077 27.0323V45.0986H286.066C291.155 45.0986 292.31 40.4597 292.31 35.9578C292.31 27.228 288.669 26.8366 280.077 27.0323ZM343.632 89.0606C326.055 89.0606 319.928 80.4483 319.928 63.8891V34.0004C319.928 19.888 328.403 12.0782 343.632 12.0782C358.879 12.0782 367.081 19.888 367.081 34.0004V63.8891C367.081 80.4483 361.228 89.0606 343.632 89.0606ZM349.621 35.1749C349.621 30.6534 349.23 25.2707 343.495 25.2707C338.014 25.2707 337.368 30.673 337.368 35.1749V65.3571C337.368 69.5654 338.014 75.8485 343.612 75.8485C349.21 75.8485 349.601 69.5654 349.601 65.3571V35.1749H349.621Z" fill="#232020"/>
</svg>
